<?xml version="1.0" encoding="UTF-8"?>
<!DOCTYPE svg PUBLIC "-//W3C//DTD SVG 1.1//EN" "http://www.w3.org/Graphics/SVG/1.1/DTD/svg11.dtd">
<svg xmlns="http://www.w3.org/2000/svg" version="1.1" width="917px" height="239px" style="shape-rendering:geometricPrecision; text-rendering:geometricPrecision; image-rendering:optimizeQuality; fill-rule:evenodd; clip-rule:evenodd" xmlns:xlink="http://www.w3.org/1999/xlink">
<g><path style="opacity:0.766" fill="#f0f0f0" d="M 270.5,12.5 C 236.671,13.4983 202.671,13.8317 168.5,13.5C 168.5,22.5 168.5,31.5 168.5,40.5C 167.506,31.3483 167.173,22.015 167.5,12.5C 201.833,12.5 236.167,12.5 270.5,12.5 Z"/></g>
<g><path style="opacity:0.996" fill="#fefefe" d="M 270.5,12.5 C 329.882,20.0609 359.216,53.8943 358.5,114C 359.279,140.111 353.446,164.611 341,187.5C 324.512,211.342 301.678,224.842 272.5,228C 237.168,228.5 201.835,228.667 166.5,228.5C 166.5,219.5 166.5,210.5 166.5,201.5C 172.989,202.07 178.989,200.737 184.5,197.5C 185.372,195.55 186.039,193.55 186.5,191.5C 187.169,142.764 187.836,93.931 188.5,45C 188.989,43.4477 188.322,42.281 186.5,41.5C 180.464,41.6401 174.464,41.3068 168.5,40.5C 168.5,31.5 168.5,22.5 168.5,13.5C 202.671,13.8317 236.671,13.4983 270.5,12.5 Z M 256.5,44.5 C 293.072,46.57 313.239,65.9033 317,102.5C 319.438,123.758 317.105,144.425 310,164.5C 302.14,181.697 288.974,192.197 270.5,196C 260.172,196.5 249.839,196.666 239.5,196.5C 235.167,196.5 230.833,196.5 226.5,196.5C 226.5,145.833 226.5,95.1667 226.5,44.5C 236.5,44.5 246.5,44.5 256.5,44.5 Z"/></g>
<g><path style="opacity:0.997" fill="#fefefe" d="M 623.5,12.5 C 625.167,12.5 626.833,12.5 628.5,12.5C 628.5,21.5 628.5,30.5 628.5,39.5C 622.302,39.5233 616.302,40.5233 610.5,42.5C 608.534,45.549 608.034,48.8823 609,52.5C 623.207,95.6206 637.707,138.621 652.5,181.5C 668.423,135.146 683.423,88.4791 697.5,41.5C 691.455,41.6968 685.455,41.3635 679.5,40.5C 679.5,31.5 679.5,22.5 679.5,13.5C 703.672,13.8309 727.672,13.4976 751.5,12.5C 752.5,12.5 753.5,12.5 754.5,12.5C 754.5,21.5 754.5,30.5 754.5,39.5C 749.481,39.7522 744.481,40.2522 739.5,41C 737.667,42.1667 736.167,43.6667 735,45.5C 713.859,106.423 693.026,167.423 672.5,228.5C 657.818,228.833 643.152,228.499 628.5,227.5C 606.667,165.833 584.833,104.167 563,42.5C 556.656,41.9959 550.49,40.9959 544.5,39.5C 545.33,31.0097 545.83,22.343 546,13.5C 547.268,13.6158 548.602,13.9491 550,14.5C 574.598,13.8379 599.098,13.1712 623.5,12.5 Z"/></g>
<g><path style="opacity:0.762" fill="#f1f1f1" d="M 751.5,12.5 C 727.672,13.4976 703.672,13.8309 679.5,13.5C 679.5,22.5 679.5,31.5 679.5,40.5C 678.506,31.3483 678.173,22.015 678.5,12.5C 702.833,12.5 727.167,12.5 751.5,12.5 Z"/></g>
<g><path style="opacity:1" fill="#93a2b7" d="M 511.5,12.5 C 510.342,13.9498 510.842,14.9498 513,15.5C 516.414,14.6055 519.914,13.9389 523.5,13.5C 525.481,13.4371 527.148,14.1038 528.5,15.5C 529.499,32.1533 529.833,48.82 529.5,65.5C 521.816,65.403 514.149,65.7363 506.5,66.5C 503.887,66.3566 501.553,65.6899 499.5,64.5C 499.494,59.7847 498.994,55.118 498,50.5C 497.535,49.0692 496.701,47.9025 495.5,47C 477.836,46.5001 460.17,46.3334 442.5,46.5C 442.17,64.6744 442.503,82.6744 443.5,100.5C 455.314,101.832 467.481,102.499 480,102.5C 492.338,102.5 504.505,102.167 516.5,101.5C 517.495,112.321 517.828,123.321 517.5,134.5C 492.5,134.5 467.5,134.5 442.5,134.5C 441.784,136.556 441.117,138.723 440.5,141C 441.492,158.757 441.826,176.59 441.5,194.5C 442.184,196.185 443.517,197.185 445.5,197.5C 463.857,197.175 482.024,196.175 500,194.5C 500.333,194.833 500.667,195.167 501,195.5C 501.5,193.667 502.667,192.5 504.5,192C 504.198,184.931 504.198,177.764 504.5,170.5C 512.012,170.539 519.679,170.706 527.5,171C 530.196,171.69 532.363,173.19 534,175.5C 534.824,192.074 534.658,208.574 533.5,225C 483.56,226.486 433.56,226.986 383.5,226.5C 382.58,225.933 382.246,226.599 382.5,228.5C 381.167,219.833 381.167,211.167 382.5,202.5C 383.482,203.141 384.482,203.807 385.5,204.5C 387.378,204.377 389.211,204.377 391,204.5C 392.676,203.939 394.009,202.939 395,201.5C 397.041,202.423 399.208,202.756 401.5,202.5C 401.081,199.675 402.081,197.509 404.5,196C 403.62,194.644 403.286,193.144 403.5,191.5C 404.831,143.665 404.831,95.665 403.5,47.5C 402.818,48.2427 402.151,48.9094 401.5,49.5C 401.5,46.8333 401.5,44.1667 401.5,41.5C 395.471,41.5745 389.471,41.2412 383.5,40.5C 383.5,31.1667 383.5,21.8333 383.5,12.5C 426.167,12.5 468.833,12.5 511.5,12.5 Z"/></g>
<g><path style="opacity:0.893" fill="#f5f5f5" d="M 623.5,12.5 C 599.098,13.1712 574.598,13.8379 550,14.5C 548.602,13.9491 547.268,13.6158 546,13.5C 545.83,22.343 545.33,31.0097 544.5,39.5C 544.5,30.5 544.5,21.5 544.5,12.5C 570.833,12.5 597.167,12.5 623.5,12.5 Z"/></g>
<g><path style="opacity:1" fill="#9aa5b5" d="M 511.5,12.5 C 518.5,12.5 525.5,12.5 532.5,12.5C 532.5,30.8333 532.5,49.1667 532.5,67.5C 521.465,67.7246 510.465,68.3913 499.5,69.5C 499.5,67.8333 499.5,66.1667 499.5,64.5C 501.553,65.6899 503.887,66.3566 506.5,66.5C 514.149,65.7363 521.816,65.403 529.5,65.5C 529.833,48.82 529.499,32.1533 528.5,15.5C 527.148,14.1038 525.481,13.4371 523.5,13.5C 519.914,13.9389 516.414,14.6055 513,15.5C 510.842,14.9498 510.342,13.9498 511.5,12.5 Z"/></g>
<g><path style="opacity:0.911" fill="#f1f1f1" d="M 186.5,41.5 C 188.322,42.281 188.989,43.4477 188.5,45C 187.836,93.931 187.169,142.764 186.5,191.5C 186.5,141.5 186.5,91.5 186.5,41.5 Z"/></g>
<g><path style="opacity:1" fill="#94a3b7" d="M 131.5,73.5 C 131.093,74.7618 130.76,76.0951 130.5,77.5C 131.5,78.3333 132.5,79.1667 133.5,80C 124.271,87.1961 114.271,92.1961 103.5,95C 102.833,96 102.167,97 101.5,98C 101.728,98.3988 102.062,98.5654 102.5,98.5C 84.6454,107.075 66.6454,115.575 48.5,124C 49.8584,124.934 51.1917,125.768 52.5,126.5C 51.6236,126.369 50.9569,126.702 50.5,127.5C 61.0706,133.407 72.0706,138.574 83.5,143C 79.8035,145.414 80.3035,145.914 85,144.5C 88.3065,145.652 91.3065,147.319 94,149.5C 95.1385,149.011 96.3052,148.678 97.5,148.5C 102.403,149.952 107.07,151.952 111.5,154.5C 111.937,156.074 112.937,157.241 114.5,158C 118.337,159.173 121.671,161.173 124.5,164C 128.876,163.615 132.209,165.281 134.5,169C 132.813,171.781 130.813,173.448 128.5,174C 128.905,174.945 129.572,175.612 130.5,176C 128.947,178.655 127.78,181.488 127,184.5C 125.333,185.5 123.667,186.5 122,187.5C 121.883,188.95 122.05,190.45 122.5,192C 122.138,193.434 121.472,194.601 120.5,195.5C 118.632,194.737 116.965,193.737 115.5,192.5C 114.534,190.943 113.2,189.61 111.5,188.5C 98.2423,183.118 86.0756,177.118 75,170.5C 74.6667,170.833 74.3333,171.167 74,171.5C 69.8355,167.66 65.0022,165.16 59.5,164C 59.8333,163.667 60.1667,163.333 60.5,163C 58.5273,162.505 56.5273,162.338 54.5,162.5C 37.6226,155.062 20.9559,147.062 4.5,138.5C 3.16667,129.5 3.16667,120.5 4.5,111.5C 42.8333,92.6667 81.1667,73.8333 119.5,55C 120.944,54.2195 122.277,54.3861 123.5,55.5C 126.179,61.5215 128.845,67.5215 131.5,73.5 Z"/></g>
<g><path style="opacity:1" fill="#94a3b7" d="M 880.5,97.5 C 883.773,100.247 887.273,102.914 891,105.5C 891.333,105.167 891.667,104.833 892,104.5C 893.074,105.618 894.24,106.618 895.5,107.5C 900.032,108.845 904.365,110.678 908.5,113C 907.833,114 907.167,115 906.5,116C 907.225,120.285 907.892,124.619 908.5,129C 908.05,130.285 907.383,131.452 906.5,132.5C 907.64,134.078 908.14,135.744 908,137.5C 907.667,137.167 907.333,136.833 907,136.5C 905.856,138.917 904.19,139.584 902,138.5C 900.075,139.88 898.241,141.38 896.5,143C 888.346,146.335 880.013,150.001 871.5,154C 870.019,154.98 868.685,156.147 867.5,157.5C 862.21,159.261 857.21,161.594 852.5,164.5C 850.776,163.339 849.11,163.505 847.5,165C 843.465,167.59 839.465,170.756 835.5,174.5C 826.626,179.103 817.626,183.437 808.5,187.5C 808.44,186.957 808.107,186.624 807.5,186.5C 805.556,187.189 803.556,187.689 801.5,188C 802.167,188.333 802.833,188.667 803.5,189C 799.284,191.121 794.951,192.621 790.5,193.5C 790.906,189.312 789.406,185.979 786,183.5C 785.23,178.071 783.397,173.071 780.5,168.5C 781.595,166.38 783.261,164.88 785.5,164C 786.784,163.316 787.951,163.483 789,164.5C 792.022,161.399 795.522,158.899 799.5,157C 799.272,156.601 798.938,156.435 798.5,156.5C 798.842,155.662 799.508,155.328 800.5,155.5C 800.435,155.938 800.601,156.272 801,156.5C 804.248,154.628 807.748,153.462 811.5,153C 817.775,148.564 824.608,145.064 832,142.5C 833.952,143.7 835.452,143.2 836.5,141C 836.167,140.667 835.833,140.333 835.5,140C 843.421,136.138 851.421,132.472 859.5,129C 861.692,127.933 863.358,126.433 864.5,124.5C 836.527,111.03 807.86,97.53 778.5,84C 781.611,73.7313 785.778,63.5646 791,53.5C 820.783,68.3082 850.616,82.9749 880.5,97.5 Z"/></g>
<g><path style="opacity:0.952" fill="#98a2bb" d="M 403.5,191.5 C 402.833,175.833 402.167,160.167 401.5,144.5C 401.5,112.833 401.5,81.1667 401.5,49.5C 402.151,48.9094 402.818,48.2427 403.5,47.5C 404.831,95.665 404.831,143.665 403.5,191.5 Z"/></g>
<g><path style="opacity:0.995" fill="#9da7b6" d="M 131.5,73.5 C 132.956,76.2467 134.289,79.08 135.5,82C 135.355,82.772 135.022,83.4387 134.5,84C 123.931,89.1193 113.264,93.9526 102.5,98.5C 102.062,98.5654 101.728,98.3988 101.5,98C 102.167,97 102.833,96 103.5,95C 114.271,92.1961 124.271,87.1961 133.5,80C 132.5,79.1667 131.5,78.3333 130.5,77.5C 130.76,76.0951 131.093,74.7618 131.5,73.5 Z"/></g>
<g><path style="opacity:0.91" fill="#9fa9b6" d="M 443.5,100.5 C 468.006,100.169 492.339,100.502 516.5,101.5C 504.505,102.167 492.338,102.5 480,102.5C 467.481,102.499 455.314,101.832 443.5,100.5 Z"/></g>
<g><path style="opacity:0.996" fill="#98a4b3" d="M 52.5,126.5 C 67.7522,133.464 82.7522,140.797 97.5,148.5C 96.3052,148.678 95.1385,149.011 94,149.5C 91.3065,147.319 88.3065,145.652 85,144.5C 80.3035,145.914 79.8035,145.414 83.5,143C 72.0706,138.574 61.0706,133.407 50.5,127.5C 50.9569,126.702 51.6236,126.369 52.5,126.5 Z"/></g>
<g><path style="opacity:0.991" fill="#9ba6b6" d="M 864.5,124.5 C 863.358,126.433 861.692,127.933 859.5,129C 851.421,132.472 843.421,136.138 835.5,140C 835.833,140.333 836.167,140.667 836.5,141C 835.452,143.2 833.952,143.7 832,142.5C 824.608,145.064 817.775,148.564 811.5,153C 807.748,153.462 804.248,154.628 801,156.5C 800.601,156.272 800.435,155.938 800.5,155.5C 821.768,145.2 843.102,134.867 864.5,124.5 Z"/></g>
<g><path style="opacity:0.639" fill="#9ca6b5" d="M 880.5,97.5 C 890.385,102.359 900.218,107.359 910,112.5C 910.667,120.833 910.667,129.167 910,137.5C 885.341,150.246 860.508,162.58 835.5,174.5C 839.465,170.756 843.465,167.59 847.5,165C 849.11,163.505 850.776,163.339 852.5,164.5C 857.21,161.594 862.21,159.261 867.5,157.5C 868.685,156.147 870.019,154.98 871.5,154C 880.013,150.001 888.346,146.335 896.5,143C 898.241,141.38 900.075,139.88 902,138.5C 904.19,139.584 905.856,138.917 907,136.5C 907.333,136.833 907.667,137.167 908,137.5C 908.14,135.744 907.64,134.078 906.5,132.5C 907.383,131.452 908.05,130.285 908.5,129C 907.892,124.619 907.225,120.285 906.5,116C 907.167,115 907.833,114 908.5,113C 904.365,110.678 900.032,108.845 895.5,107.5C 894.24,106.618 893.074,105.618 892,104.5C 891.667,104.833 891.333,105.167 891,105.5C 887.273,102.914 883.773,100.247 880.5,97.5 Z"/></g>
<g><path style="opacity:0.539" fill="#818c9d" d="M 442.5,134.5 C 442.5,154.5 442.5,174.5 442.5,194.5C 442.167,194.5 441.833,194.5 441.5,194.5C 441.826,176.59 441.492,158.757 440.5,141C 441.117,138.723 441.784,136.556 442.5,134.5 Z"/></g>
<g><path style="opacity:0.867" fill="#9ba5b4" d="M 111.5,154.5 C 120.03,158.597 128.363,162.93 136.5,167.5C 132.167,176.833 127.833,186.167 123.5,195.5C 122.575,196.562 121.575,196.562 120.5,195.5C 121.472,194.601 122.138,193.434 122.5,192C 122.05,190.45 121.883,188.95 122,187.5C 123.667,186.5 125.333,185.5 127,184.5C 127.78,181.488 128.947,178.655 130.5,176C 129.572,175.612 128.905,174.945 128.5,174C 130.813,173.448 132.813,171.781 134.5,169C 132.209,165.281 128.876,163.615 124.5,164C 121.671,161.173 118.337,159.173 114.5,158C 112.937,157.241 111.937,156.074 111.5,154.5 Z"/></g>
<g><path style="opacity:0.991" fill="#9da6b6" d="M 54.5,162.5 C 56.5273,162.338 58.5273,162.505 60.5,163C 60.1667,163.333 59.8333,163.667 59.5,164C 65.0022,165.16 69.8355,167.66 74,171.5C 74.3333,171.167 74.6667,170.833 75,170.5C 86.0756,177.118 98.2423,183.118 111.5,188.5C 113.2,189.61 114.534,190.943 115.5,192.5C 94.7389,183.286 74.4056,173.286 54.5,162.5 Z"/></g>
<g><path style="opacity:0.635" fill="#ececec" d="M 256.5,44.5 C 246.5,44.5 236.5,44.5 226.5,44.5C 226.5,95.1667 226.5,145.833 226.5,196.5C 230.833,196.5 235.167,196.5 239.5,196.5C 236.103,197.198 232.603,197.865 229,198.5C 227.989,197.663 226.822,197.33 225.5,197.5C 225.5,146.167 225.5,94.8333 225.5,43.5C 236.014,43.1724 246.347,43.5058 256.5,44.5 Z"/></g>
<g><path style="opacity:0.71" fill="#99a4b3" d="M 798.5,156.5 C 798.938,156.435 799.272,156.601 799.5,157C 795.522,158.899 792.022,161.399 789,164.5C 787.951,163.483 786.784,163.316 785.5,164C 783.261,164.88 781.595,166.38 780.5,168.5C 783.397,173.071 785.23,178.071 786,183.5C 789.406,185.979 790.906,189.312 790.5,193.5C 794.951,192.621 799.284,191.121 803.5,189C 802.833,188.667 802.167,188.333 801.5,188C 803.556,187.689 805.556,187.189 807.5,186.5C 808.107,186.624 808.44,186.957 808.5,187.5C 802.931,190.868 797.098,193.868 791,196.5C 786.107,187.212 781.607,177.712 777.5,168C 783.827,163.165 790.827,159.332 798.5,156.5 Z"/></g>
<g><path style="opacity:0.986" fill="#97a1b0" d="M 401.5,144.5 C 402.167,160.167 402.833,175.833 403.5,191.5C 403.286,193.144 403.62,194.644 404.5,196C 402.081,197.509 401.081,199.675 401.5,202.5C 399.208,202.756 397.041,202.423 395,201.5C 394.009,202.939 392.676,203.939 391,204.5C 389.211,204.377 387.378,204.377 385.5,204.5C 384.482,203.807 383.482,203.141 382.5,202.5C 386.997,201.514 391.664,200.68 396.5,200C 398.286,199.215 399.786,198.049 401,196.5C 401.5,179.17 401.667,161.837 401.5,144.5 Z"/></g>
<g><path style="opacity:1" fill="#97a2b2" d="M 531.5,170.5 C 532.568,171.434 533.901,171.768 535.5,171.5C 535.5,190.167 535.5,208.833 535.5,227.5C 484.664,227.832 433.997,227.499 383.5,226.5C 433.56,226.986 483.56,226.486 533.5,225C 534.658,208.574 534.824,192.074 534,175.5C 532.363,173.19 530.196,171.69 527.5,171C 519.679,170.706 512.012,170.539 504.5,170.5C 504.198,177.764 504.198,184.931 504.5,192C 502.667,192.5 501.5,193.667 501,195.5C 500.667,195.167 500.333,194.833 500,194.5C 482.024,196.175 463.857,197.175 445.5,197.5C 443.517,197.185 442.184,196.185 441.5,194.5C 441.833,194.5 442.167,194.5 442.5,194.5C 461.17,194.667 479.836,194.5 498.5,194C 499.931,193.535 501.097,192.701 502,191.5C 502.5,183.841 502.666,176.174 502.5,168.5C 512.359,168.557 522.026,169.224 531.5,170.5 Z"/></g>
<g><path style="opacity:0.913" fill="#a7b0bc" d="M 531.5,170.5 C 533.167,170.5 534.833,170.5 536.5,170.5C 536.5,189.833 536.5,209.167 536.5,228.5C 485.167,228.5 433.833,228.5 382.5,228.5C 382.246,226.599 382.58,225.933 383.5,226.5C 433.997,227.499 484.664,227.832 535.5,227.5C 535.5,208.833 535.5,190.167 535.5,171.5C 533.901,171.768 532.568,171.434 531.5,170.5 Z"/></g>
</svg>
